<mxfile host="" modified="2020-06-25T08:04:13.433Z" agent="5.0 (X11; Linux x86_64) AppleWebKit/537.36 (KHTML, like Gecko) Code/1.45.1 Chrome/78.0.3904.130 Electron/7.2.4 Safari/537.36" etag="bXjSGCoJdXoRqqzdfFan" version="13.1.3">
    <diagram id="6hGFLwfOUW9BJ-s0fimq" name="Page-1">
        <mxGraphModel dx="678" dy="1168" grid="0" gridSize="10" guides="1" tooltips="1" connect="1" arrows="1" fold="1" page="0" pageScale="1" pageWidth="827" pageHeight="1169" background="#ffffff" math="0" shadow="0">
            <root>
                <mxCell id="0"/>
                <mxCell id="1" parent="0"/>
                <mxCell id="2" value="" style="verticalLabelPosition=bottom;verticalAlign=top;html=1;shape=mxgraph.basic.rect;fillColor2=none;strokeWidth=1;size=20;indent=5;fillColor=#FFFFFF;strokeColor=#000000;fontColor=#000000;" vertex="1" parent="1">
                    <mxGeometry x="7" y="-421" width="120" height="60" as="geometry"/>
                </mxCell>
                <mxCell id="3" value="" style="verticalLabelPosition=bottom;verticalAlign=top;html=1;shape=mxgraph.basic.rect;fillColor2=none;strokeWidth=1;size=20;indent=5;fillColor=#FFFFFF;strokeColor=#000000;" vertex="1" parent="1">
                    <mxGeometry x="268" y="-455" width="556" height="343" as="geometry"/>
                </mxCell>
                <mxCell id="4" value="客户端" style="text;html=1;align=center;verticalAlign=middle;resizable=0;points=[];autosize=1;fontColor=#000000;" vertex="1" parent="1">
                    <mxGeometry x="38" y="-400" width="46" height="18" as="geometry"/>
                </mxCell>
                <mxCell id="7" value="" style="edgeStyle=orthogonalEdgeStyle;rounded=0;orthogonalLoop=1;jettySize=auto;html=1;fontColor=#000000;" edge="1" parent="1" source="5">
                    <mxGeometry relative="1" as="geometry">
                        <mxPoint x="177" y="-177" as="targetPoint"/>
                    </mxGeometry>
                </mxCell>
                <mxCell id="8" style="edgeStyle=orthogonalEdgeStyle;rounded=0;orthogonalLoop=1;jettySize=auto;html=1;exitX=0.5;exitY=0;exitDx=0;exitDy=9.100000000000001;exitPerimeter=0;fontColor=#000000;" edge="1" parent="1" source="5">
                    <mxGeometry relative="1" as="geometry">
                        <mxPoint x="192.66666666666674" y="-361.5" as="targetPoint"/>
                    </mxGeometry>
                </mxCell>
                <mxCell id="5" value="" style="html=1;shadow=0;dashed=0;align=center;verticalAlign=middle;shape=mxgraph.arrows2.twoWayArrow;dy=0.65;dx=22;strokeColor=#000000;fillColor=#FFFFFF;fontColor=#000000;" vertex="1" parent="1">
                    <mxGeometry x="131" y="-405" width="131" height="28" as="geometry"/>
                </mxCell>
                <mxCell id="9" value="epoll" style="text;html=1;align=center;verticalAlign=middle;resizable=0;points=[];autosize=1;fontColor=#000000;" vertex="1" parent="1">
                    <mxGeometry x="279" y="-400" width="35" height="18" as="geometry"/>
                </mxCell>
                <mxCell id="10" value="" style="html=1;shadow=0;dashed=0;align=center;verticalAlign=middle;shape=mxgraph.arrows2.arrow;dy=0.67;dx=20;notch=0;strokeColor=#000000;fillColor=#FFFFFF;fontColor=#000000;" vertex="1" parent="1">
                    <mxGeometry x="316" y="-408.5" width="112" height="35" as="geometry"/>
                </mxCell>
                <mxCell id="11" value="Channel读取数据" style="text;html=1;align=center;verticalAlign=middle;resizable=0;points=[];autosize=1;fontColor=#000000;" vertex="1" parent="1">
                    <mxGeometry x="307" y="-415" width="103" height="18" as="geometry"/>
                </mxCell>
                <mxCell id="12" value="" style="verticalLabelPosition=bottom;verticalAlign=top;html=1;shape=mxgraph.basic.rect;fillColor2=none;strokeWidth=1;size=20;indent=5;fillColor=#FFFFFF;fontColor=#000000;strokeColor=#000000;" vertex="1" parent="1">
                    <mxGeometry x="438" y="-424" width="120" height="60" as="geometry"/>
                </mxCell>
                <mxCell id="13" value="ChannelPipeline" style="text;html=1;align=center;verticalAlign=middle;resizable=0;points=[];autosize=1;fontColor=#000000;" vertex="1" parent="1">
                    <mxGeometry x="449.5" y="-405" width="97" height="18" as="geometry"/>
                </mxCell>
                <mxCell id="14" value="Channel Event&lt;br&gt;" style="text;html=1;align=center;verticalAlign=middle;resizable=0;points=[];autosize=1;fontColor=#000000;" vertex="1" parent="1">
                    <mxGeometry x="560" y="-423" width="89" height="18" as="geometry"/>
                </mxCell>
                <mxCell id="15" value="" style="html=1;shadow=0;dashed=0;align=center;verticalAlign=middle;shape=mxgraph.arrows2.arrow;dy=0.67;dx=20;notch=0;strokeColor=#000000;fillColor=#FFFFFF;fontColor=#000000;" vertex="1" parent="1">
                    <mxGeometry x="561" y="-405" width="112" height="35" as="geometry"/>
                </mxCell>
                <mxCell id="16" value="" style="verticalLabelPosition=bottom;verticalAlign=top;html=1;shape=mxgraph.basic.rect;fillColor2=none;strokeWidth=1;size=20;indent=5;fillColor=#FFFFFF;fontColor=#000000;strokeColor=#000000;" vertex="1" parent="1">
                    <mxGeometry x="676" y="-417.5" width="134" height="60" as="geometry"/>
                </mxCell>
                <mxCell id="17" value="Head ChannelHandler" style="text;html=1;align=center;verticalAlign=middle;resizable=0;points=[];autosize=1;fontColor=#000000;" vertex="1" parent="1">
                    <mxGeometry x="673" y="-397" width="129" height="18" as="geometry"/>
                </mxCell>
                <mxCell id="18" value="" style="html=1;shadow=0;dashed=0;align=center;verticalAlign=middle;shape=mxgraph.arrows2.arrow;dy=0.67;dx=20;notch=0;strokeColor=#000000;fillColor=#FFFFFF;fontColor=#000000;rotation=90;" vertex="1" parent="1">
                    <mxGeometry x="715" y="-345" width="48" height="33" as="geometry"/>
                </mxCell>
                <mxCell id="20" value="" style="verticalLabelPosition=bottom;verticalAlign=top;html=1;shape=mxgraph.basic.rect;fillColor2=none;strokeWidth=1;size=20;indent=5;fillColor=#FFFFFF;fontColor=#000000;strokeColor=#000000;" vertex="1" parent="1">
                    <mxGeometry x="678" y="-300.5" width="134" height="60" as="geometry"/>
                </mxCell>
                <mxCell id="21" value="ChannelHandler1" style="text;html=1;align=center;verticalAlign=middle;resizable=0;points=[];autosize=1;fontColor=#000000;" vertex="1" parent="1">
                    <mxGeometry x="690.5" y="-284" width="103" height="18" as="geometry"/>
                </mxCell>
                <mxCell id="22" value="" style="verticalLabelPosition=bottom;verticalAlign=top;html=1;shape=mxgraph.basic.rect;fillColor2=none;strokeWidth=1;size=20;indent=5;fillColor=#FFFFFF;fontColor=#000000;strokeColor=#000000;" vertex="1" parent="1">
                    <mxGeometry x="677.5" y="-174" width="134" height="60" as="geometry"/>
                </mxCell>
                <mxCell id="23" value="Tail ChannelHandler" style="text;html=1;align=center;verticalAlign=middle;resizable=0;points=[];autosize=1;fontColor=#000000;" vertex="1" parent="1">
                    <mxGeometry x="680.5" y="-153.5" width="118" height="18" as="geometry"/>
                </mxCell>
                <mxCell id="24" value="Channel Event&lt;br&gt;" style="text;html=1;align=center;verticalAlign=middle;resizable=0;points=[];autosize=1;fontColor=#000000;" vertex="1" parent="1">
                    <mxGeometry x="626" y="-216" width="89" height="18" as="geometry"/>
                </mxCell>
                <mxCell id="25" value="Channel Event&lt;br&gt;" style="text;html=1;align=center;verticalAlign=middle;resizable=0;points=[];autosize=1;fontColor=#000000;" vertex="1" parent="1">
                    <mxGeometry x="617" y="-337.5" width="89" height="18" as="geometry"/>
                </mxCell>
                <mxCell id="26" value="" style="html=1;shadow=0;dashed=0;align=center;verticalAlign=middle;shape=mxgraph.arrows2.arrow;dy=0.67;dx=20;notch=0;strokeColor=#000000;fillColor=#FFFFFF;fontColor=#000000;rotation=90;" vertex="1" parent="1">
                    <mxGeometry x="721" y="-226" width="48" height="33" as="geometry"/>
                </mxCell>
            </root>
        </mxGraphModel>
    </diagram>
</mxfile>